<svg width="1505" height="1505" viewBox="0 0 1505 1505" fill="none" xmlns="http://www.w3.org/2000/svg">
<g clip-path="url(#clip0_94_2)">
<rect width="1505" height="1505" fill="white"/>
<path d="M1505 1505H0V0H1505V1505ZM752.5 56C367.834 56 56 367.834 56 752.5C56 1137.17 367.834 1449 752.5 1449C1137.17 1449 1449 1137.17 1449 752.5C1449 367.834 1137.17 56 752.5 56ZM752.5 96C1115.07 96 1409 389.925 1409 752.5C1409 1115.07 1115.07 1409 752.5 1409C389.925 1409 96 1115.07 96 752.5C96 389.925 389.925 96 752.5 96Z" fill="#D9D9D9"/>
</g>
<defs>
<clipPath id="clip0_94_2">
<rect width="1505" height="1505" fill="white"/>
</clipPath>
</defs>
</svg>
